<svg xmlns="http://www.w3.org/2000/svg"  viewBox="0 0 30 30" width="30px" height="30px"><path d="M 1 4 L 1 11 L 4 11 L 4 18 C 4 22.418 7.582 26 12 26 L 26 26 L 26 12 C 26 7.582 22.418 4 18 4 L 1 4 z M 3 6 L 18 6 C 21.308 6 24 8.692 24 12 L 24 24 L 12 24 C 8.692 24 6 21.308 6 18 L 6 11 L 6 9 L 4 9 L 3 9 L 3 6 z M 8 9 L 8 18 C 8 19.64497 9.3550302 21 11 21 L 19 21 C 20.64497 21 22 19.64497 22 18 L 22 13 C 22 11.35503 20.64497 10 19 10 C 18.231416 10 17.533353 10.304125 17 10.787109 C 16.466647 10.304125 15.768584 10 15 10 C 13.35503 10 12 11.35503 12 13 L 12 16.980469 L 14 16.980469 L 14 13 C 14 12.43497 14.43497 12 15 12 C 15.56503 12 16 12.43497 16 13 L 16 16.980469 L 16 17 L 18 17 L 18 13 C 18 12.43497 18.43497 12 19 12 C 19.56503 12 20 12.43497 20 13 L 20 18 C 20 18.56503 19.56503 19 19 19 L 11 19 C 10.43497 19 10 18.56503 10 18 L 10 9 L 8 9 z"/></svg>